<svg xmlns="http://www.w3.org/2000/svg" xmlns:xlink="http://www.w3.org/1999/xlink" aria-hidden="true" role="img"
    width="1em" height="1em" preserveAspectRatio="xMidYMid meet" viewBox="0 0 24 24">
    <g fill="none" stroke="currentColor" stroke-linecap="round" stroke-linejoin="round" stroke-width="1.5">
        <path fill="currentColor"
            d="M12 7.5a.5.5 0 1 0 0-1a.5.5 0 0 0 0 1Zm0 10a.5.5 0 1 0 0-1a.5.5 0 0 0 0 1Zm0-5a.5.5 0 1 0 0-1a.5.5 0 0 0 0 1Z" />
        <path d="M12 22c5.523 0 10-4.477 10-10S17.523 2 12 2S2 6.477 2 12s4.477 10 10 10Z" />
    </g>
</svg>