<svg xmlns="http://www.w3.org/2000/svg" xmlns:xlink="http://www.w3.org/1999/xlink" aria-hidden="true" role="img"
    width="1em" height="1em" preserveAspectRatio="xMidYMid meet" viewBox="0 0 24 24">
    <path
        d="M23.9111 11.716C23.7221 11.441 19.18 4.99986 11.9999 4.99986C5.83883 4.99986 0.348744 11.404 0.11774 11.677C-0.0392467 11.863 -0.0392467 12.136 0.11774 12.323C0.348744 12.596 5.83883 19.0001 11.9999 19.0001C18.1611 19.0001 23.6511 12.596 23.8821 12.323C24.0271 12.151 24.0401 11.902 23.9111 11.716ZM11.9999 18.0001C7.06088 18.0001 2.36478 13.29 1.17179 12C2.36281 10.709 7.0539 5.99991 11.9999 5.99991C17.779 5.99991 21.8581 10.703 22.8541 11.973C21.7041 13.222 16.981 18.0001 11.9999 18.0001Z"
        fill="currentColor" />
    <path
        d="M12 7.99991C9.79403 7.99991 8 9.79394 8 12C8 14.206 9.79403 16 12 16C14.2061 16 16.0001 14.206 16.0001 12C16.0001 9.79394 14.2061 7.99991 12 7.99991ZM12 15C10.346 15 9 13.654 9 12C9 10.346 10.346 8.99996 12 8.99996C13.6541 8.99996 15.0001 10.346 15.0001 12C15.0001 13.654 13.6541 15 12 15Z"
        fill="currentColor" />
</svg>