<svg width="40" height="13" viewBox="0 0 40 13" fill="none" xmlns="http://www.w3.org/2000/svg">
    <g clip-path="url(#clip0_33_978)">
        <path
            d="M26.0469 0.0200043C23.2096 0.0200043 20.6741 1.49064 20.6741 4.20775C20.6741 7.32376 25.171 7.53898 25.171 9.10438C25.171 9.7635 24.4156 10.3535 23.1255 10.3535C21.2946 10.3535 19.9261 9.52909 19.9261 9.52909L19.3406 12.2709C19.3406 12.2709 20.917 12.9673 23.01 12.9673C26.112 12.9673 28.553 11.4245 28.553 8.66093C28.553 5.36831 24.0374 5.15948 24.0374 3.70653C24.0374 3.1902 24.6575 2.62446 25.9439 2.62446C27.3953 2.62446 28.5796 3.22405 28.5796 3.22405L29.1526 0.575872C29.1526 0.575872 27.8641 0.0200043 26.0469 0.0200043ZM0.0882339 0.219867L0.0195312 0.619592C0.0195312 0.619592 1.21319 0.838051 2.28828 1.27383C3.67255 1.77354 3.77116 2.06444 4.00429 2.96798L6.54473 12.7612H9.95019L15.1966 0.219867H11.7989L8.4278 8.74681L7.05219 1.51897C6.92603 0.691753 6.28701 0.219867 5.50482 0.219867H0.0882339ZM16.5628 0.219867L13.8975 12.7612H17.1374L19.7934 0.219867H16.5628ZM34.6332 0.219867C33.8519 0.219867 33.438 0.638145 33.1342 1.36908L28.3875 12.7612H31.7852L32.4425 10.8625H36.5819L36.9816 12.7612H39.9795L37.3641 0.219867H34.6332ZM35.0751 3.60816L36.0822 8.3143H33.3841L35.0751 3.60816Z"
            fill="#1434CB" />
    </g>
    <defs>
        <clipPath id="clip0_33_978">
            <rect width="40" height="12.9873" fill="white" />
        </clipPath>
    </defs>
</svg>