<svg xmlns="http://www.w3.org/2000/svg" xmlns:xlink="http://www.w3.org/1999/xlink" width="1em" height="1em" preserveAspectRatio="xMidYMid meet" viewBox="0 0 30 30">
<g clip-path="url(#clip0_33_673)">
<path d="M18.5351 11.4646C18.2913 11.2208 17.895 11.2208 17.6513 11.4646C17.4075 11.7083 17.4075 12.1058 17.6513 12.3483C18.3588 13.0558 18.75 13.9971 18.75 14.9996C18.75 17.067 17.0675 18.7496 15.0001 18.7496C13.9976 18.7496 13.0563 18.3596 12.3488 17.6508C12.1051 17.4071 11.7088 17.4071 11.465 17.6508C11.2213 17.8933 11.2213 18.2908 11.465 18.5346C12.4075 19.4796 13.6638 19.9996 15.0001 19.9996C17.7575 19.9996 20 17.7571 20 14.9996C20 13.6633 19.4801 12.407 18.5351 11.4646Z" fill="currentColor"/>
<path d="M15.8712 10.0858C15.5874 10.0358 15.2975 9.99953 15 9.99953C12.2425 9.99953 10 12.242 10 14.9995C10 15.297 10.0363 15.587 10.0875 15.8707C10.1412 16.1732 10.405 16.387 10.7013 16.387C10.7375 16.387 10.7737 16.3845 10.8112 16.377C11.15 16.317 11.3775 15.992 11.3175 15.6532C11.2788 15.4407 11.25 15.2245 11.25 14.9995C11.25 12.932 12.9325 11.2495 15 11.2495C15.225 11.2495 15.4413 11.2783 15.6537 11.3158C15.9862 11.3833 16.3175 11.1483 16.3775 10.8095C16.4375 10.4708 16.21 10.1458 15.8712 10.0858Z" fill="currentColor"/>
<path d="M29.8511 14.5958C29.7098 14.4283 26.3286 10.482 21.6649 8.06582C21.3624 7.90709 20.9812 8.02709 20.8224 8.33459C20.6636 8.64086 20.7836 9.01832 21.0911 9.17711C24.6836 11.0371 27.5536 13.9396 28.5349 14.9996C27.0449 16.6133 21.1811 22.4996 14.9999 22.4996C12.9024 22.4996 10.7887 21.9934 8.71493 20.9933C8.40744 20.8421 8.03121 20.9734 7.88121 21.2846C7.72998 21.5946 7.86123 21.9683 8.17248 22.1183C10.4162 23.2021 12.7137 23.7496 15 23.7496C22.7012 23.7496 29.5637 15.7446 29.8525 15.4033C30.0499 15.1708 30.0486 14.8295 29.8511 14.5958Z" fill="currentColor"/>
<path d="M19.1013 6.96954C17.6788 6.49077 16.2988 6.24954 15.0001 6.24954C7.29881 6.24954 0.436315 14.2545 0.147565 14.5958C-0.034954 14.8108 -0.049954 15.1233 0.112585 15.357C0.198835 15.4808 2.26508 18.4145 5.84633 20.7933C5.95256 20.8646 6.07133 20.8983 6.19133 20.8983C6.39259 20.8983 6.59134 20.8008 6.71134 20.6171C6.90259 20.3308 6.82384 19.9421 6.53632 19.752C3.90635 18.0033 2.10635 15.8921 1.43258 15.0333C2.87135 13.4708 8.77384 7.49958 15.0001 7.49958C16.1638 7.49958 17.4101 7.7196 18.7025 8.15331C19.03 8.27079 19.385 8.08956 19.4938 7.76079C19.6038 7.43331 19.4288 7.07958 19.1013 6.96954Z" fill="currentColor"/>
<path d="M26.0665 3.93327C25.8227 3.68952 25.4265 3.68952 25.1827 3.93327L3.93281 25.1833C3.68906 25.427 3.68906 25.8233 3.93281 26.067C4.05533 26.1882 4.21529 26.2495 4.37531 26.2495C4.53533 26.2495 4.69529 26.1883 4.81658 26.067L26.0665 4.81704C26.3102 4.57329 26.3102 4.17702 26.0665 3.93327Z" fill="currentColor"/>
</g>
<!-- <defs>
<clipPath id="clip0_33_673">
<rect width="1em" height="1em" fill="white"/>
</clipPath>
</defs> -->
</svg>
