<svg xmlns="http://www.w3.org/2000/svg" xmlns:xlink="http://www.w3.org/1999/xlink" width="1em" height="1em" preserveAspectRatio="xMidYMid meet" viewBox="0 0 30 30">
<path d="M29.8889 14.645C29.6526 14.3012 23.9751 6.24982 14.9999 6.24982C7.29854 6.24982 0.43593 14.255 0.147175 14.5962C-0.0490584 14.8287 -0.0490584 15.17 0.147175 15.4037C0.43593 15.745 7.29854 23.7501 14.9999 23.7501C22.7013 23.7501 29.5639 15.745 29.8526 15.4037C30.0339 15.1887 30.0501 14.8775 29.8889 14.645ZM14.9999 22.5001C8.8261 22.5001 2.95597 16.6125 1.46473 15C2.95351 13.3862 8.81737 7.49987 14.9999 7.49987C22.2238 7.49987 27.3226 13.3787 28.5676 14.9662C27.1301 16.5275 21.2263 22.5001 14.9999 22.5001Z" fill="currentColor"/>
<path d="M15.0001 9.99988C12.2425 9.99988 10 12.2424 10 14.9999C10 17.7575 12.2425 20 15.0001 20C17.7576 20 20.0001 17.7575 20.0001 14.9999C20.0001 12.2424 17.7576 9.99988 15.0001 9.99988ZM15.0001 18.7501C12.9325 18.7501 11.25 17.0675 11.25 15C11.25 12.9325 12.9325 11.2499 15.0001 11.2499C17.0676 11.2499 18.7501 12.9325 18.7501 15C18.7501 17.0675 17.0676 18.7501 15.0001 18.7501Z" fill="currentColor"/>
</svg>
