<svg xmlns="http://www.w3.org/2000/svg" xmlns:xlink="http://www.w3.org/1999/xlink" preserveAspectRatio="xMidYMid meet"
    width="1em" height="1em" viewBox="0 0 60 60">
    <g clip-path="url(#clip0_33_239)">
        <path
            d="M35.1274 25.4107H54.1869C54.6723 25.4107 55.0658 25.0172 55.0658 24.5318C55.0658 24.0464 54.6723 23.6529 54.1869 23.6529H35.1274C34.6421 23.6529 34.2485 24.0464 34.2485 24.5318C34.2485 25.0172 34.6421 25.4107 35.1274 25.4107Z"
            fill="currentColor" />
        <path
            d="M35.1274 31.993H54.1869C54.6723 31.993 55.0658 31.5995 55.0658 31.1141C55.0658 30.6287 54.6723 30.2352 54.1869 30.2352H35.1274C34.6421 30.2352 34.2485 30.6287 34.2485 31.1141C34.2485 31.5995 34.6421 31.993 35.1274 31.993Z"
            fill="currentColor" />
        <path
            d="M35.1274 38.5753H54.1869C54.6723 38.5753 55.0658 38.1818 55.0658 37.6964C55.0658 37.211 54.6723 36.8175 54.1869 36.8175H35.1274C34.6421 36.8175 34.2485 37.211 34.2485 37.6964C34.2485 38.1818 34.6421 38.5753 35.1274 38.5753Z"
            fill="currentColor" />
        <path
            d="M49.096 40.9803C45.8042 40.9803 43.126 43.6584 43.126 46.9503C43.126 50.2421 45.8042 52.9203 49.096 52.9203C52.3879 52.9203 55.066 50.2423 55.066 46.9503C55.066 43.6584 52.3879 40.9803 49.096 40.9803ZM49.096 51.1624C46.7734 51.1624 44.8838 49.2729 44.8838 46.9502C44.8838 44.6277 46.7733 42.738 49.096 42.738C51.4186 42.738 53.3082 44.6277 53.3082 46.9502C53.3082 49.2729 51.4186 51.1624 49.096 51.1624Z"
            fill="currentColor" />
        <path
            d="M30 5.73961C28.5461 5.73961 27.3633 6.92238 27.3633 8.37633C27.3633 9.83027 28.5461 11.013 30 11.013C31.4539 11.013 32.6367 9.83027 32.6367 8.37633C32.6367 6.92238 31.4539 5.73961 30 5.73961ZM30 9.25523C29.5153 9.25523 29.1211 8.86101 29.1211 8.37633C29.1211 7.89164 29.5153 7.49742 30 7.49742C30.4847 7.49742 30.8789 7.89164 30.8789 8.37633C30.8789 8.86101 30.4847 9.25523 30 9.25523Z"
            fill="currentColor" />
        <path
            d="M29.0262 25.4107C29.5115 25.4107 29.9051 25.0172 29.9051 24.5318C29.9051 24.0464 29.5115 23.6529 29.0262 23.6529H5.81299C5.3276 23.6529 4.93408 24.0464 4.93408 24.5318V52.0413C4.93408 52.5267 5.3276 52.9202 5.81299 52.9202H9.52654H26.49H30.2036C30.689 52.9202 31.0825 52.5267 31.0825 52.0413V24.5318C31.0825 24.0464 30.689 23.6529 30.2036 23.6529H24.8565C24.3712 23.6529 23.9776 24.0464 23.9776 24.5318C23.9776 25.0172 24.3712 25.4107 24.8565 25.4107H29.3246V51.1624H27.3688V45.7313C27.3688 43.6313 25.6602 41.9227 23.5602 41.9227H21.3155V41.5891C22.8276 40.5387 23.8201 38.7904 23.8201 36.8139V34.8557C23.8201 31.6509 21.2128 29.0436 18.0081 29.0436C14.8034 29.0436 12.1961 31.6509 12.1961 34.8557V36.8139C12.1961 38.7905 13.1887 40.5387 14.7007 41.5891V41.9227H12.456C10.3559 41.9227 8.6474 43.6313 8.6474 45.7313V51.1625H6.69189V25.4107H29.0262ZM16.4588 42.8016V42.4151C16.4639 42.4165 16.4693 42.4174 16.4746 42.4188C16.9635 42.5528 17.4775 42.6257 18.0083 42.6257C18.5392 42.6257 19.0532 42.5528 19.5421 42.4188C19.5472 42.4174 19.5526 42.4165 19.5578 42.4151V42.8016V43.8888C19.5578 44.7431 18.8626 45.4383 18.0082 45.4383C17.1538 45.4383 16.4587 44.7431 16.4587 43.8888L16.4588 42.8016ZM13.9541 34.8555C13.9541 32.6201 15.7729 30.8013 18.0083 30.8013C20.2438 30.8013 22.0626 32.6201 22.0626 34.8555V36.8138C22.0626 38.3372 21.2175 39.6663 19.9721 40.359C18.7627 41.0305 17.254 41.0305 16.0446 40.359C14.7992 39.6665 13.9541 38.3372 13.9541 36.8138V34.8555ZM10.4054 45.7313C10.4054 44.6005 11.3254 43.6805 12.4562 43.6805H14.701V43.8888C14.701 45.7124 16.1847 47.1961 18.0083 47.1961C19.832 47.1961 21.3157 45.7124 21.3157 43.8888V43.6805H23.5605C24.6912 43.6805 25.6112 44.6005 25.6112 45.7313V51.1625H10.4054V45.7313Z"
            fill="currentColor" />
        <path
            d="M37.6677 55.8499H3.80859C2.67785 55.8499 1.75781 54.9299 1.75781 53.7991V37.6963C1.75781 37.2109 1.3643 36.8174 0.878906 36.8174C0.393516 36.8174 0 37.2109 0 37.6963V53.7991C0 55.8991 1.70859 57.6077 3.80859 57.6077H37.6677C38.1531 57.6077 38.5466 57.2142 38.5466 56.7288C38.5466 56.2434 38.1531 55.8499 37.6677 55.8499Z"
            fill="currentColor" />
        <path
            d="M56.1914 13.1545H35.8028V4.44305C35.8028 3.3123 34.8827 2.39227 33.752 2.39227H26.2481C25.1174 2.39227 24.1973 3.3123 24.1973 4.44305V13.1545H3.80859C1.70859 13.1545 0 14.8631 0 16.9631V43.9195C0 44.4048 0.393516 44.7984 0.878906 44.7984C1.3643 44.7984 1.75781 44.4048 1.75781 43.9195V16.963C1.75781 15.8323 2.67785 14.9122 3.80859 14.9122H24.1972V15.2552C24.1972 18.4549 26.8003 21.058 30 21.058C33.1997 21.058 35.8028 18.4549 35.8028 15.2552V14.9122H56.1914C57.3221 14.9122 58.2422 15.8323 58.2422 16.963V53.7991C58.2422 54.9299 57.3221 55.8499 56.1914 55.8499H31.4982C31.0128 55.8499 30.6193 56.2434 30.6193 56.7288C30.6193 57.2142 31.0128 57.6077 31.4982 57.6077H56.1914C58.2914 57.6077 60 55.8991 60 53.7991V16.963C60 14.863 58.2914 13.1545 56.1914 13.1545ZM34.045 15.2552C34.045 17.4857 32.2304 19.3002 30 19.3002C27.7696 19.3002 25.955 17.4857 25.955 15.2552V14.0333V4.44305C25.955 4.28156 26.0865 4.15008 26.248 4.15008H33.7519C33.9134 4.15008 34.0448 4.28156 34.0448 4.44305V14.0334L34.045 15.2552Z"
            fill="currentColor" />
        <path
            d="M49.8399 44.9634L47.109 47.6944C46.7658 48.0376 46.7658 48.5941 47.109 48.9373C47.2806 49.1089 47.5056 49.1947 47.7304 49.1947C47.9553 49.1947 48.1803 49.1089 48.3519 48.9373L51.0828 46.2063C51.4261 45.8631 51.4261 45.3066 51.0828 44.9634C50.7397 44.6201 50.1831 44.6201 49.8399 44.9634Z"
            fill="currentColor" />
    </g>
    <!-- <defs>
        <clipPath id="clip0_33_239">
            <rect width="60" height="60" fill="white" />
        </clipPath>
    </defs> -->
</svg>