<svg xmlns="http://www.w3.org/2000/svg" xmlns:xlink="http://www.w3.org/1999/xlink" width="1em" height="1em"
    preserveAspectRatio="xMidYMid meet" viewBox="0 0 60 60">
    <g clip-path="url(#clip0_33_391)">
        <path
            d="M44.091 19.0369C44.3705 19.3165 44.7421 19.4705 45.1373 19.4705C45.5326 19.4705 45.9042 19.3165 46.1836 19.0371L53.4041 11.8167C53.7473 11.4734 53.7473 10.917 53.4041 10.5737C53.0609 10.2306 52.5045 10.2306 52.1611 10.5737L45.1373 17.5975L42.8427 15.3027C42.4993 14.9596 41.9429 14.9596 41.5997 15.3027C41.2564 15.6461 41.2564 16.2025 41.5997 16.5457L44.091 19.0369ZM57.9492 46.9336H57.3633V22.2016C57.7382 21.9737 58.0857 21.6852 58.3267 21.2686C58.7357 20.5616 58.6675 19.7661 58.6073 19.0642C58.5735 18.6694 58.5386 18.2611 58.6098 17.994C58.6753 17.7492 58.9024 17.4258 59.122 17.1129C59.5336 16.5267 60 15.8624 60 15.0176C60 14.1728 59.5336 13.5084 59.122 12.9223C58.9024 12.6094 58.6752 12.2859 58.6099 12.0413C58.5386 11.7741 58.5734 11.3657 58.6073 10.971C58.6676 10.2691 58.7358 9.47368 58.3267 8.76657C57.9123 8.05032 57.1834 7.71083 56.5403 7.41153C56.1861 7.24653 55.8198 7.07602 55.6316 6.8877C55.4434 6.69962 55.2728 6.33329 55.1078 5.97891C54.8084 5.3359 54.4691 4.607 53.7527 4.19262C53.0459 3.78376 52.2506 3.85184 51.5482 3.91196C51.1539 3.94583 50.7453 3.98087 50.478 3.9095C50.2332 3.84399 49.9098 3.61688 49.5969 3.39727C49.0107 2.98571 48.3464 2.5193 47.5016 2.5193C46.6568 2.5193 45.9925 2.98571 45.4063 3.39727C45.0934 3.61688 44.77 3.84411 44.5253 3.90938C44.258 3.98098 43.8496 3.94583 43.455 3.91196C42.7533 3.85172 41.9578 3.7834 41.2506 4.19262C40.5343 4.607 40.195 5.3359 39.8955 5.97891C39.7305 6.33317 39.56 6.6995 39.3718 6.8877C39.1236 7.1359 38.5508 7.36512 38.1525 7.55837H7.03125C4.60805 7.55837 2.63672 9.52969 2.63672 11.9529V46.9334H2.05078C0.920039 46.9336 0 47.8536 0 48.9844V53.086C0 55.5092 1.97133 57.4805 4.39453 57.4805H55.6055C58.0287 57.4805 60 55.5092 60 53.086V48.9844C60 47.8536 59.08 46.9336 57.9492 46.9336ZM37.3202 13.9327C37.628 13.4944 37.9461 13.0412 38.0919 12.4954C38.2362 11.9554 38.1929 11.3461 38.1478 10.8209C38.1079 10.3559 38.0667 9.87505 38.1987 9.647C38.3559 9.37524 38.8697 9.16149 39.2054 9.00516C39.6751 8.78649 40.2075 8.53876 40.6153 8.13094C41.023 7.72325 41.2709 7.19087 41.4895 6.72106C41.6886 6.29356 41.8945 5.85141 42.1314 5.71442C42.3596 5.58247 42.8402 5.62372 43.3054 5.66356C43.8253 5.70797 44.4148 5.7586 44.9797 5.60766C45.5253 5.46188 45.9785 5.14372 46.4168 4.83598C46.8081 4.56118 47.2127 4.27712 47.5021 4.27712C47.7914 4.27712 48.1961 4.56118 48.5873 4.83598C49.0255 5.14372 49.4787 5.46188 50.0245 5.60778C50.5894 5.75872 51.1789 5.70797 51.6989 5.66356C52.1639 5.62348 52.6448 5.58235 52.8729 5.71442C53.1097 5.85141 53.3155 6.29344 53.5147 6.72106C53.7334 7.19087 53.9812 7.72325 54.3889 8.13094C54.7966 8.53864 55.329 8.78649 55.7987 9.00516C56.2262 9.20426 56.6685 9.41016 56.8056 9.64712C56.9374 9.87505 56.8962 10.356 56.8563 10.821C56.8118 11.3411 56.7612 11.9307 56.9122 12.4955C57.058 13.0411 57.3762 13.4943 57.6839 13.9325C57.9587 14.3238 58.2428 14.7285 58.2428 15.0178C58.2428 15.3072 57.9587 15.7118 57.6839 16.1031C57.3762 16.5413 57.058 16.9944 56.9121 17.5403C56.7613 18.1049 56.8119 18.6946 56.8563 19.2145C56.8963 19.6797 56.9374 20.1604 56.8055 20.3885C56.6685 20.6254 56.2263 20.8313 55.7987 21.0305C55.329 21.2491 54.7966 21.497 54.3889 21.9047C53.9812 22.3124 53.7334 22.8448 53.5147 23.3145C53.0312 24.3529 52.8436 24.4703 51.6991 24.372C51.1791 24.3273 50.5893 24.2768 50.0247 24.4277C49.4789 24.5736 49.0257 24.8918 48.5873 25.1995C48.1961 25.4743 47.7915 25.7584 47.5022 25.7584C47.2128 25.7584 46.8083 25.4743 46.417 25.1995C45.9788 24.8918 45.5256 24.5736 44.9797 24.4279C44.6937 24.3513 44.4011 24.3266 44.1144 24.3266C43.8353 24.3266 43.5618 24.35 43.3052 24.3721C42.8404 24.4119 42.3595 24.4533 42.1315 24.3212C41.8946 24.1842 41.6888 23.7421 41.4895 23.3143C40.9828 22.2261 40.3023 21.5412 39.2054 21.0304C38.7779 20.8313 38.3358 20.6254 38.1988 20.3885C38.0668 20.1606 38.1081 19.6798 38.1479 19.2148C38.1677 18.9843 38.1877 18.7399 38.1918 18.4904C38.192 18.4786 38.1927 18.4669 38.1923 18.4552C38.1953 18.1526 38.1731 17.843 38.0923 17.5403C37.9464 16.9945 37.6282 16.5414 37.3205 16.103C37.0457 15.7117 36.7616 15.3072 36.7616 15.0178C36.7616 14.7285 37.0454 14.3238 37.3202 13.9327ZM55.6055 23.1769V46.9336H53.8477V25.7833C54.4991 25.3611 54.8221 24.67 55.1078 24.0563C55.265 23.7185 55.4276 23.3716 55.6055 23.1769ZM38.4633 22.6236C38.6971 22.7325 38.935 22.844 39.1247 22.9611C39.4506 23.9384 39.6177 24.9598 39.6177 26.0027C39.6177 28.3555 38.7674 30.5125 37.3597 32.1858C36.7616 30.3832 35.5083 28.836 33.8546 27.8816C34.2668 27.2018 34.5043 26.4048 34.5043 25.5534V24.1706C34.5043 21.687 32.4838 19.6663 30 19.6663C27.5162 19.6663 25.4957 21.6868 25.4957 24.1706V25.5534C25.4957 26.4049 25.7332 27.2018 26.1454 27.8816C24.4917 28.8359 23.2384 30.3832 22.6403 32.1858C21.2326 30.5126 20.3823 28.3555 20.3823 26.0027C20.3823 20.6997 24.6967 16.3853 29.9999 16.3853C32.3872 16.3853 34.6494 17.2545 36.4147 18.8385C36.3547 19.6349 36.223 20.4841 36.6768 21.2687C37.0914 21.9849 37.8202 22.3242 38.4633 22.6236ZM27.3803 29.214C28.119 29.7442 29.0234 30.0577 30 30.0577C30.9766 30.0577 31.881 29.7442 32.6197 29.214C34.342 30.0549 35.5789 31.6997 35.9051 33.5867C34.2738 34.8599 32.2248 35.6215 30 35.6215C27.7752 35.6215 25.7262 34.86 24.0949 33.5867C24.4211 31.6997 25.658 30.0549 27.3803 29.214ZM27.2535 25.5534V24.1706C27.2535 22.6562 28.4856 21.4241 30 21.4241C31.5144 21.4241 32.7465 22.6562 32.7465 24.1706V25.5534C32.7465 27.0679 31.5144 28.3 30 28.3C28.4856 28.3 27.2535 27.0679 27.2535 25.5534ZM4.39453 11.9531C4.39453 10.4993 5.57742 9.31641 7.03125 9.31641H36.4507C36.2933 9.90118 36.3575 10.5108 36.405 11.0742H30.5859C30.1004 11.0742 29.707 11.4676 29.707 11.9531C29.707 12.4386 30.1004 12.832 30.5859 12.832H35.9449C35.5113 13.4552 35.0036 14.1306 35.0036 15.0177C35.0036 15.3203 35.064 15.5993 35.1598 15.8603C33.5796 15.0549 31.8205 14.6274 29.9999 14.6274C23.7275 14.6274 18.6245 19.7303 18.6245 26.0026C18.6245 32.2815 23.8008 37.3792 29.9999 37.3792C36.2907 37.3792 41.4306 32.1865 41.3733 25.9078C42.0488 26.2433 42.7936 26.1798 43.4551 26.1231C43.8497 26.0893 44.2582 26.0541 44.5255 26.1257C44.7702 26.1911 45.0938 26.4182 45.4066 26.6378C45.9928 27.0493 46.6571 27.5158 47.5018 27.5158C48.3465 27.5158 49.0109 27.0493 49.597 26.6378C49.9099 26.4182 50.2335 26.1909 50.4782 26.1256C50.8663 26.0217 51.6036 26.1411 52.09 26.1621V46.9336H36.3272C35.1964 46.9336 34.2764 47.8536 34.2764 48.9844V50.5757C34.2764 50.7373 34.145 50.8686 33.9834 50.8686H26.0166C25.855 50.8686 25.7236 50.7373 25.7236 50.5757V48.9844C25.7236 47.8536 24.8036 46.9336 23.6728 46.9336H7.91016V12.832H32.4844C32.9699 12.832 33.3633 12.4386 33.3633 11.9531C33.3633 11.4676 32.9699 11.0742 32.4844 11.0742H7.85156C6.91465 11.0742 6.15234 11.8365 6.15234 12.7734V46.9336H4.39453V11.9531ZM58.2422 53.086C58.2422 54.5398 57.0593 55.7227 55.6055 55.7227H4.39453C2.9407 55.7227 1.75781 54.5398 1.75781 53.086V48.9844C1.75781 48.8228 1.88918 48.6914 2.05078 48.6914H23.6728C23.8344 48.6914 23.9658 48.8228 23.9658 48.9844V50.5757C23.9658 51.7064 24.8858 52.6265 26.0166 52.6265H33.9834C35.1142 52.6265 36.0342 51.7064 36.0342 50.5757V48.9844C36.0342 48.8228 36.1656 48.6914 36.3272 48.6914H57.9492C58.1108 48.6914 58.2422 48.8228 58.2422 48.9844V53.086ZM17.7387 41.3672V43.125C17.7387 44.2558 18.6587 45.1758 19.7895 45.1758H24.7518C25.2373 45.1758 25.6307 44.7824 25.6307 44.2969C25.6307 43.8114 25.2373 43.418 24.7518 43.418H19.7895C19.6278 43.418 19.4965 43.2866 19.4965 43.125V41.3672C19.4965 41.2056 19.6278 41.0742 19.7895 41.0742H40.2105C40.3722 41.0742 40.5035 41.2056 40.5035 41.3672V43.125C40.5035 43.2866 40.3722 43.418 40.2105 43.418H22.8533C22.3678 43.418 21.9744 43.8114 21.9744 44.2969C21.9744 44.7824 22.3678 45.1758 22.8533 45.1758H40.2105C41.3413 45.1758 42.2613 44.2558 42.2613 43.125V41.3672C42.2613 40.2365 41.3413 39.3164 40.2105 39.3164H19.7895C18.6587 39.3164 17.7387 40.2365 17.7387 41.3672Z"
            fill="currentColor" />
    </g>
    <!-- <defs>
<clipPath id="clip0_33_391">
<rect width="60" height="60" fill="white"/>
</clipPath>
</defs> -->
</svg>