<svg width="60" height="60" viewBox="0 0 60 60" fill="none" xmlns="http://www.w3.org/2000/svg">
<path d="M55.3125 23.4375H46.875V21.5625H53.4375C54.6807 21.5625 55.873 21.0686 56.7521 20.1896C57.6311 19.3105 58.125 18.1182 58.125 16.875C58.125 15.6318 57.6311 14.4395 56.7521 13.5604C55.873 12.6814 54.6807 12.1875 53.4375 12.1875H46.875V2.8125C46.875 2.56386 46.7762 2.3254 46.6004 2.14959C46.4246 1.97377 46.1861 1.875 45.9375 1.875H2.8125C2.56386 1.875 2.3254 1.97377 2.14959 2.14959C1.97377 2.3254 1.875 2.56386 1.875 2.8125V45C1.87531 45.1308 1.903 45.2601 1.95628 45.3796C2.00956 45.4991 2.08726 45.6061 2.18437 45.6938L11.5594 54.1313C11.7299 54.2898 11.9547 54.3771 12.1875 54.375H30V55.3125C30.0022 56.0577 30.2993 56.7718 30.8262 57.2988C31.3532 57.8257 32.0673 58.1228 32.8125 58.125H55.3125C56.0577 58.1228 56.7718 57.8257 57.2988 57.2988C57.8257 56.7718 58.1228 56.0577 58.125 55.3125V26.25C58.1228 25.5048 57.8257 24.7907 57.2988 24.2637C56.7718 23.7368 56.0577 23.4397 55.3125 23.4375ZM52.5 14.0625H53.4375C54.1834 14.0625 54.8988 14.3588 55.4262 14.8863C55.9537 15.4137 56.25 16.1291 56.25 16.875C56.25 17.6209 55.9537 18.3363 55.4262 18.8637C54.8988 19.3912 54.1834 19.6875 53.4375 19.6875H52.5V14.0625ZM50.625 19.6875H18.75V17.8125H50.625V19.6875ZM50.625 14.0625V15.9375H18.75V14.0625H50.625ZM11.25 51.3281L5.25938 45.9375H11.25V51.3281ZM30 26.25V52.5H13.125V45C13.125 44.7514 13.0262 44.5129 12.8504 44.3371C12.6746 44.1613 12.4361 44.0625 12.1875 44.0625H3.75V3.75H45V12.1875H17.8125C17.7037 12.1871 17.5958 12.2062 17.4937 12.2438L7.18125 15.9937C7.00026 16.0594 6.84389 16.1793 6.73339 16.3369C6.62288 16.4946 6.5636 16.6825 6.5636 16.875C6.5636 17.0675 6.62288 17.2554 6.73339 17.4131C6.84389 17.5707 7.00026 17.6906 7.18125 17.7563L17.4937 21.5063C17.5958 21.5438 17.7037 21.5629 17.8125 21.5625H45V23.4375H32.8125C32.0673 23.4397 31.3532 23.7368 30.8262 24.2637C30.2993 24.7907 30.0022 25.5048 30 26.25ZM16.875 14.4656V19.2844L10.2469 16.875L16.875 14.4656ZM56.25 55.3125C56.25 55.5611 56.1512 55.7996 55.9754 55.9754C55.7996 56.1512 55.5611 56.25 55.3125 56.25H32.8125C32.5639 56.25 32.3254 56.1512 32.1496 55.9754C31.9738 55.7996 31.875 55.5611 31.875 55.3125V26.25C31.875 26.0014 31.9738 25.7629 32.1496 25.5871C32.3254 25.4113 32.5639 25.3125 32.8125 25.3125H55.3125C55.5611 25.3125 55.7996 25.4113 55.9754 25.5871C56.1512 25.7629 56.25 26.0014 56.25 26.25V55.3125Z" fill="#FE4A8B"/>
<path d="M53.4375 27.1875H34.6875C34.4389 27.1875 34.2004 27.2863 34.0246 27.4621C33.8488 27.6379 33.75 27.8764 33.75 28.125V32.8125C33.75 33.0611 33.8488 33.2996 34.0246 33.4754C34.2004 33.6512 34.4389 33.75 34.6875 33.75H53.4375C53.6861 33.75 53.9246 33.6512 54.1004 33.4754C54.2762 33.2996 54.375 33.0611 54.375 32.8125V28.125C54.375 27.8764 54.2762 27.6379 54.1004 27.4621C53.9246 27.2863 53.6861 27.1875 53.4375 27.1875ZM52.5 31.875H35.625V29.0625H52.5V31.875Z" fill="#FE4A8B"/>
<path d="M38.4375 35.625H34.6875C34.4389 35.625 34.2004 35.7238 34.0246 35.8996C33.8488 36.0754 33.75 36.3139 33.75 36.5625V40.3125C33.75 40.5611 33.8488 40.7996 34.0246 40.9754C34.2004 41.1512 34.4389 41.25 34.6875 41.25H38.4375C38.6861 41.25 38.9246 41.1512 39.1004 40.9754C39.2762 40.7996 39.375 40.5611 39.375 40.3125V36.5625C39.375 36.3139 39.2762 36.0754 39.1004 35.8996C38.9246 35.7238 38.6861 35.625 38.4375 35.625ZM37.5 39.375H35.625V37.5H37.5V39.375Z" fill="#FE4A8B"/>
<path d="M38.4375 42.1875H34.6875C34.4389 42.1875 34.2004 42.2863 34.0246 42.4621C33.8488 42.6379 33.75 42.8764 33.75 43.125V46.875C33.75 47.1236 33.8488 47.3621 34.0246 47.5379C34.2004 47.7137 34.4389 47.8125 34.6875 47.8125H38.4375C38.6861 47.8125 38.9246 47.7137 39.1004 47.5379C39.2762 47.3621 39.375 47.1236 39.375 46.875V43.125C39.375 42.8764 39.2762 42.6379 39.1004 42.4621C38.9246 42.2863 38.6861 42.1875 38.4375 42.1875ZM37.5 45.9375H35.625V44.0625H37.5V45.9375Z" fill="#FE4A8B"/>
<path d="M38.4375 48.75H34.6875C34.4389 48.75 34.2004 48.8488 34.0246 49.0246C33.8488 49.2004 33.75 49.4389 33.75 49.6875V53.4375C33.75 53.6861 33.8488 53.9246 34.0246 54.1004C34.2004 54.2762 34.4389 54.375 34.6875 54.375H38.4375C38.6861 54.375 38.9246 54.2762 39.1004 54.1004C39.2762 53.9246 39.375 53.6861 39.375 53.4375V49.6875C39.375 49.4389 39.2762 49.2004 39.1004 49.0246C38.9246 48.8488 38.6861 48.75 38.4375 48.75ZM37.5 52.5H35.625V50.625H37.5V52.5Z" fill="#FE4A8B"/>
<path d="M45.9375 35.625H42.1875C41.9389 35.625 41.7004 35.7238 41.5246 35.8996C41.3488 36.0754 41.25 36.3139 41.25 36.5625V40.3125C41.25 40.5611 41.3488 40.7996 41.5246 40.9754C41.7004 41.1512 41.9389 41.25 42.1875 41.25H45.9375C46.1861 41.25 46.4246 41.1512 46.6004 40.9754C46.7762 40.7996 46.875 40.5611 46.875 40.3125V36.5625C46.875 36.3139 46.7762 36.0754 46.6004 35.8996C46.4246 35.7238 46.1861 35.625 45.9375 35.625ZM45 39.375H43.125V37.5H45V39.375Z" fill="#FE4A8B"/>
<path d="M45.9375 42.1875H42.1875C41.9389 42.1875 41.7004 42.2863 41.5246 42.4621C41.3488 42.6379 41.25 42.8764 41.25 43.125V46.875C41.25 47.1236 41.3488 47.3621 41.5246 47.5379C41.7004 47.7137 41.9389 47.8125 42.1875 47.8125H45.9375C46.1861 47.8125 46.4246 47.7137 46.6004 47.5379C46.7762 47.3621 46.875 47.1236 46.875 46.875V43.125C46.875 42.8764 46.7762 42.6379 46.6004 42.4621C46.4246 42.2863 46.1861 42.1875 45.9375 42.1875ZM45 45.9375H43.125V44.0625H45V45.9375Z" fill="#FE4A8B"/>
<path d="M45.9375 48.75H42.1875C41.9389 48.75 41.7004 48.8488 41.5246 49.0246C41.3488 49.2004 41.25 49.4389 41.25 49.6875V53.4375C41.25 53.6861 41.3488 53.9246 41.5246 54.1004C41.7004 54.2762 41.9389 54.375 42.1875 54.375H45.9375C46.1861 54.375 46.4246 54.2762 46.6004 54.1004C46.7762 53.9246 46.875 53.6861 46.875 53.4375V49.6875C46.875 49.4389 46.7762 49.2004 46.6004 49.0246C46.4246 48.8488 46.1861 48.75 45.9375 48.75ZM45 52.5H43.125V50.625H45V52.5Z" fill="#FE4A8B"/>
<path d="M53.4375 35.625H49.6875C49.4389 35.625 49.2004 35.7238 49.0246 35.8996C48.8488 36.0754 48.75 36.3139 48.75 36.5625V40.3125C48.75 40.5611 48.8488 40.7996 49.0246 40.9754C49.2004 41.1512 49.4389 41.25 49.6875 41.25H53.4375C53.6861 41.25 53.9246 41.1512 54.1004 40.9754C54.2762 40.7996 54.375 40.5611 54.375 40.3125V36.5625C54.375 36.3139 54.2762 36.0754 54.1004 35.8996C53.9246 35.7238 53.6861 35.625 53.4375 35.625ZM52.5 39.375H50.625V37.5H52.5V39.375Z" fill="#FE4A8B"/>
<path d="M53.4375 42.1875H49.6875C49.4389 42.1875 49.2004 42.2863 49.0246 42.4621C48.8488 42.6379 48.75 42.8764 48.75 43.125V53.4375C48.75 53.6861 48.8488 53.9246 49.0246 54.1004C49.2004 54.2762 49.4389 54.375 49.6875 54.375H53.4375C53.6861 54.375 53.9246 54.2762 54.1004 54.1004C54.2762 53.9246 54.375 53.6861 54.375 53.4375V43.125C54.375 42.8764 54.2762 42.6379 54.1004 42.4621C53.9246 42.2863 53.6861 42.1875 53.4375 42.1875ZM52.5 52.5H50.625V44.0625H52.5V52.5Z" fill="#FE4A8B"/>
</svg>
