<svg xmlns="http://www.w3.org/2000/svg" xmlns:xlink="http://www.w3.org/1999/xlink" width="1em" height="1em" preserveAspectRatio="xMidYMid meet" viewBox="0 0 60 60">
<path d="M51.2132 8.78672C45.547 3.12059 38.0133 0 30 0C21.9867 0 14.4531 3.12059 8.78684 8.78672C3.12059 14.453 0 21.9867 0 30C0 38.0133 3.12047 45.547 8.78672 51.2133C14.4531 56.8794 21.9867 60 30 60C38.0133 60 45.547 56.8794 51.2133 51.2133C56.8794 45.547 60 38.0133 60 30C60 21.9867 56.8794 14.453 51.2132 8.78672ZM49.9703 49.9703C44.636 55.3045 37.5438 58.2422 30 58.2422C22.4563 58.2422 15.364 55.3045 10.0298 49.9703C4.69559 44.6359 1.75781 37.5438 1.75781 30C1.75781 22.4562 4.69547 15.364 10.0297 10.0297C15.364 4.69547 22.4563 1.75781 30 1.75781C37.5438 1.75781 44.6361 4.69547 49.9703 10.0297C55.3044 15.3639 58.2422 22.4562 58.2422 30C58.2422 37.5438 55.3044 44.6361 49.9703 49.9703Z" fill="currentColor"/>
<path d="M29.9998 5.53781C16.5113 5.53781 5.5376 16.5115 5.5376 30C5.5376 43.4885 16.5113 54.4622 29.9998 54.4622C43.4883 54.4622 54.462 43.4885 54.462 30C54.462 16.5115 43.4882 5.53781 29.9998 5.53781ZM29.9998 52.7044C17.4805 52.7044 7.29541 42.5192 7.29541 30C7.29541 17.4807 17.4805 7.29562 29.9998 7.29562C42.519 7.29562 52.7041 17.4807 52.7041 30C52.7041 42.5192 42.519 52.7044 29.9998 52.7044Z" fill="currentColor"/>
<path d="M31.6405 38.2984H19.0371C17.3406 38.2984 15.9605 36.9183 15.9605 35.2217V24.7781C15.9605 23.0816 17.3406 21.7015 19.0371 21.7015H22.4489C22.9344 21.7015 23.3278 21.3081 23.3278 20.8226C23.3278 20.3371 22.9344 19.9437 22.4489 19.9437H19.0371C16.3714 19.9437 14.2026 22.1125 14.2026 24.7781V35.2217C14.2026 37.8874 16.3714 40.0562 19.0371 40.0562H31.6405C32.126 40.0562 32.5194 39.6628 32.5194 39.1773C32.5194 38.6919 32.1259 38.2984 31.6405 38.2984Z" fill="currentColor"/>
<path d="M40.9631 19.9437H18.9648C18.4793 19.9437 18.0859 20.3371 18.0859 20.8226C18.0859 21.3081 18.4793 21.7015 18.9648 21.7015H40.9631C42.6595 21.7015 44.0396 23.0816 44.0396 24.7781V35.2217C44.0396 36.9183 42.6595 38.2984 40.9631 38.2984H25.1564C24.6709 38.2984 24.2775 38.6918 24.2775 39.1773C24.2775 39.6628 24.6709 40.0562 25.1564 40.0562H40.9631C43.6287 40.0562 45.7974 37.8874 45.7974 35.2217V24.7781C45.7973 22.1125 43.6287 19.9437 40.9631 19.9437Z" fill="currentColor"/>
<path d="M35.2576 35.0525C35.2608 35.0424 35.2639 35.0324 35.2668 35.0222L37.1854 28.292L38.4717 35.0221C38.5627 35.4988 39.0231 35.8121 39.4999 35.7203C39.9766 35.6292 40.2892 35.1688 40.1981 34.6921L38.3882 25.2219C38.2885 24.7336 37.8714 24.373 37.3738 24.3451C36.8744 24.3136 36.4213 24.6284 36.2675 25.1025C36.2643 25.1126 36.2611 25.1227 36.2582 25.133L34.2022 32.3455L32.0715 25.1237C32.0684 25.1133 32.0651 25.103 32.0617 25.0926C31.9031 24.6199 31.4444 24.3141 30.947 24.3464C30.4495 24.3798 30.0363 24.7451 29.9402 25.2446L28.2333 34.7011C28.1472 35.1787 28.4646 35.6359 28.9422 35.7221C29.4193 35.8078 29.8771 35.491 29.9633 35.0133L31.1753 28.298L33.1621 35.0321C33.1652 35.0427 33.1686 35.0531 33.172 35.0635C33.3227 35.5118 33.7406 35.812 34.2131 35.812H34.2189C34.6935 35.8093 35.1111 35.5042 35.2576 35.0525Z" fill="currentColor"/>
<path d="M23.3356 35.6568C23.8211 35.6568 24.2145 35.2634 24.2145 34.7778V25.9459H26.0279C26.5134 25.9459 26.9068 25.5525 26.9068 25.067C26.9068 24.5815 26.5134 24.1881 26.0279 24.1881H20.665C20.1795 24.1881 19.7861 24.5815 19.7861 25.067C19.7861 25.5525 20.1795 25.9459 20.665 25.9459H22.4567V34.7778C22.4567 35.2634 22.8501 35.6568 23.3356 35.6568Z" fill="currentColor"/>
</svg>
