<svg width="58" height="58" viewBox="0 0 58 58" fill="none" xmlns="http://www.w3.org/2000/svg">
<path d="M7.70312 45.3125C7.10224 45.3125 6.52597 45.5512 6.10109 45.9761C5.6762 46.401 5.4375 46.9772 5.4375 47.5781C5.4375 48.179 5.6762 48.7553 6.10109 49.1802C6.52597 49.6051 7.10224 49.8438 7.70312 49.8438H9.0625V52.5625C9.06394 53.7638 9.5418 54.9155 10.3913 55.765C11.2407 56.6144 12.3924 57.0923 13.5938 57.0938H48.0312C49.2326 57.0923 50.3843 56.6144 51.2337 55.765C52.0832 54.9155 52.5611 53.7638 52.5625 52.5625V5.4375C52.5611 4.23618 52.0832 3.08447 51.2337 2.23501C50.3843 1.38555 49.2326 0.907689 48.0312 0.90625H13.5938C12.3924 0.907689 11.2407 1.38555 10.3913 2.23501C9.5418 3.08447 9.06394 4.23618 9.0625 5.4375V9.0625H7.70312C7.10224 9.0625 6.52597 9.3012 6.10109 9.72609C5.6762 10.151 5.4375 10.7272 5.4375 11.3281C5.4375 11.929 5.6762 12.5053 6.10109 12.9302C6.52597 13.3551 7.10224 13.5938 7.70312 13.5938H9.0625V18.125H7.70312C7.10224 18.125 6.52597 18.3637 6.10109 18.7886C5.6762 19.2135 5.4375 19.7897 5.4375 20.3906C5.4375 20.9915 5.6762 21.5678 6.10109 21.9927C6.52597 22.4176 7.10224 22.6562 7.70312 22.6562H9.0625V27.1875H7.70312C7.10224 27.1875 6.52597 27.4262 6.10109 27.8511C5.6762 28.276 5.4375 28.8522 5.4375 29.4531C5.4375 30.054 5.6762 30.6303 6.10109 31.0552C6.52597 31.4801 7.10224 31.7188 7.70312 31.7188H9.0625V36.25H7.70312C7.10224 36.25 6.52597 36.4887 6.10109 36.9136C5.6762 37.3385 5.4375 37.9147 5.4375 38.5156C5.4375 39.1165 5.6762 39.6928 6.10109 40.1177C6.52597 40.5426 7.10224 40.7812 7.70312 40.7812H9.0625V45.3125H7.70312ZM7.25 47.5781C7.25 47.458 7.29774 47.3427 7.38272 47.2577C7.46769 47.1727 7.58295 47.125 7.70312 47.125H12.2344C12.3546 47.125 12.4698 47.1727 12.5548 47.2577C12.6398 47.3427 12.6875 47.458 12.6875 47.5781C12.6875 47.6983 12.6398 47.8136 12.5548 47.8985C12.4698 47.9835 12.3546 48.0312 12.2344 48.0312H7.70312C7.58295 48.0312 7.46769 47.9835 7.38272 47.8985C7.29774 47.8136 7.25 47.6983 7.25 47.5781ZM50.75 5.4375V13.2186L40.2502 2.71875H48.0312C48.7523 2.71875 49.4438 3.00519 49.9537 3.51505C50.4636 4.02492 50.75 4.71644 50.75 5.4375ZM38.9688 4.00019L49.4686 14.5H41.6875C40.9664 14.5 40.2749 14.2136 39.7651 13.7037C39.2552 13.1938 38.9688 12.5023 38.9688 11.7812V4.00019ZM7.25 11.3281C7.25 11.2079 7.29774 11.0927 7.38272 11.0077C7.46769 10.9227 7.58295 10.875 7.70312 10.875H12.2344C12.3546 10.875 12.4698 10.9227 12.5548 11.0077C12.6398 11.0927 12.6875 11.2079 12.6875 11.3281C12.6875 11.4483 12.6398 11.5636 12.5548 11.6485C12.4698 11.7335 12.3546 11.7812 12.2344 11.7812H7.70312C7.58295 11.7812 7.46769 11.7335 7.38272 11.6485C7.29774 11.5636 7.25 11.4483 7.25 11.3281ZM7.25 20.3906C7.25 20.2704 7.29774 20.1552 7.38272 20.0702C7.46769 19.9852 7.58295 19.9375 7.70312 19.9375H12.2344C12.3546 19.9375 12.4698 19.9852 12.5548 20.0702C12.6398 20.1552 12.6875 20.2704 12.6875 20.3906C12.6875 20.5108 12.6398 20.6261 12.5548 20.711C12.4698 20.796 12.3546 20.8438 12.2344 20.8438H7.70312C7.58295 20.8438 7.46769 20.796 7.38272 20.711C7.29774 20.6261 7.25 20.5108 7.25 20.3906ZM7.25 29.4531C7.25 29.3329 7.29774 29.2177 7.38272 29.1327C7.46769 29.0477 7.58295 29 7.70312 29H12.2344C12.3546 29 12.4698 29.0477 12.5548 29.1327C12.6398 29.2177 12.6875 29.3329 12.6875 29.4531C12.6875 29.5733 12.6398 29.6886 12.5548 29.7735C12.4698 29.8585 12.3546 29.9062 12.2344 29.9062H7.70312C7.58295 29.9062 7.46769 29.8585 7.38272 29.7735C7.29774 29.6886 7.25 29.5733 7.25 29.4531ZM7.25 38.5156C7.25 38.3955 7.29774 38.2802 7.38272 38.1952C7.46769 38.1102 7.58295 38.0625 7.70312 38.0625H12.2344C12.3546 38.0625 12.4698 38.1102 12.5548 38.1952C12.6398 38.2802 12.6875 38.3955 12.6875 38.5156C12.6875 38.6358 12.6398 38.7511 12.5548 38.836C12.4698 38.921 12.3546 38.9688 12.2344 38.9688H7.70312C7.58295 38.9688 7.46769 38.921 7.38272 38.836C7.29774 38.7511 7.25 38.6358 7.25 38.5156ZM10.875 40.7812H12.2344C12.8353 40.7812 13.4115 40.5426 13.8364 40.1177C14.2613 39.6928 14.5 39.1165 14.5 38.5156C14.5 37.9147 14.2613 37.3385 13.8364 36.9136C13.4115 36.4887 12.8353 36.25 12.2344 36.25H10.875V31.7188H12.2344C12.8353 31.7188 13.4115 31.4801 13.8364 31.0552C14.2613 30.6303 14.5 30.054 14.5 29.4531C14.5 28.8522 14.2613 28.276 13.8364 27.8511C13.4115 27.4262 12.8353 27.1875 12.2344 27.1875H10.875V22.6562H12.2344C12.8353 22.6562 13.4115 22.4176 13.8364 21.9927C14.2613 21.5678 14.5 20.9915 14.5 20.3906C14.5 19.7897 14.2613 19.2135 13.8364 18.7886C13.4115 18.3637 12.8353 18.125 12.2344 18.125H10.875V13.5938H12.2344C12.8353 13.5938 13.4115 13.3551 13.8364 12.9302C14.2613 12.5053 14.5 11.929 14.5 11.3281C14.5 10.7272 14.2613 10.151 13.8364 9.72609C13.4115 9.3012 12.8353 9.0625 12.2344 9.0625H10.875V5.4375C10.875 4.71644 11.1614 4.02492 11.6713 3.51505C12.1812 3.00519 12.8727 2.71875 13.5938 2.71875H37.1562V11.7812C37.1577 12.9826 37.6356 14.1343 38.485 14.9837C39.3345 15.8332 40.4862 16.3111 41.6875 16.3125H50.75V52.5625C50.75 53.2836 50.4636 53.9751 49.9537 54.4849C49.4438 54.9948 48.7523 55.2812 48.0312 55.2812H13.5938C12.8727 55.2812 12.1812 54.9948 11.6713 54.4849C11.1614 53.9751 10.875 53.2836 10.875 52.5625V49.8438H12.2344C12.8353 49.8438 13.4115 49.6051 13.8364 49.1802C14.2613 48.7553 14.5 48.179 14.5 47.5781C14.5 46.9772 14.2613 46.401 13.8364 45.9761C13.4115 45.5512 12.8353 45.3125 12.2344 45.3125H10.875V40.7812Z" fill="#FE4A8B"/>
<path d="M29.9062 38.9688C32.309 38.9661 34.6125 38.0105 36.3115 36.3115C38.0105 34.6125 38.9661 32.309 38.9688 29.9062C38.9688 29.6659 38.8733 29.4354 38.7033 29.2654C38.5334 29.0955 38.3029 29 38.0625 29H30.8125V21.75C30.8125 21.5096 30.717 21.2791 30.5471 21.1092C30.3771 20.9392 30.1466 20.8438 29.9062 20.8438C27.5027 20.8438 25.1976 21.7985 23.4981 23.4981C21.7985 25.1976 20.8438 27.5027 20.8438 29.9062C20.8438 32.3098 21.7985 34.6149 23.4981 36.3144C25.1976 38.014 27.5027 38.9688 29.9062 38.9688ZM29 22.7124V29.9062C29 30.1466 29.0955 30.3771 29.2654 30.5471C29.4354 30.717 29.6659 30.8125 29.9062 30.8125H37.1001C36.9303 32.1584 36.3864 33.4297 35.5302 34.4818C34.6739 35.534 33.5396 36.3248 32.2562 36.7643C30.9728 37.2039 29.5919 37.2746 28.2704 36.9683C26.9488 36.6621 25.7397 35.9912 24.7805 35.032C23.8213 34.0728 23.1504 32.8637 22.8442 31.5421C22.5379 30.2206 22.6086 28.8397 23.0482 27.5563C23.4877 26.2729 24.2785 25.1386 25.3307 24.2823C26.3828 23.4261 27.6541 22.8822 29 22.7124Z" fill="#FE4A8B"/>
<path d="M32.625 28.0938H40.7812C41.0216 28.0938 41.2521 27.9983 41.4221 27.8283C41.592 27.6584 41.6875 27.4279 41.6875 27.1875C41.6849 24.7848 40.7292 22.4812 39.0302 20.7823C37.3313 19.0833 35.0277 18.1276 32.625 18.125C32.3846 18.125 32.1541 18.2205 31.9842 18.3904C31.8142 18.5604 31.7188 18.7909 31.7188 19.0312V27.1875C31.7188 27.4279 31.8142 27.6584 31.9842 27.8283C32.1541 27.9983 32.3846 28.0938 32.625 28.0938ZM33.5312 19.9937C35.1275 20.1976 36.611 20.9257 37.7489 22.0636C38.8868 23.2015 39.6149 24.685 39.8188 26.2812H33.5312V19.9937Z" fill="#FE4A8B"/>
<path d="M28.837 45.6261L32.8354 50.4237C32.916 50.5204 33.0159 50.5993 33.1287 50.6552C33.2414 50.7112 33.3646 50.7431 33.4904 50.7488C33.6162 50.7545 33.7417 50.7339 33.8591 50.6884C33.9765 50.6429 34.0831 50.5734 34.1721 50.4845L41.6877 42.9689V45.3125H43.5002V40.7812H43.492C43.4953 40.662 43.4745 40.5434 43.4306 40.4324C43.3868 40.3215 43.3209 40.2207 43.2369 40.1359C43.1529 40.0512 43.0527 39.9844 42.9422 39.9396C42.8316 39.8947 42.7132 39.8727 42.5939 39.875H38.0627V41.6875H40.4062L33.5921 48.5016L29.6953 43.8262C29.5498 43.6519 29.3443 43.5385 29.1192 43.5084C28.8942 43.4784 28.666 43.5339 28.48 43.664L19.4175 50.0078L20.456 51.4922L28.837 45.6261Z" fill="#FE4A8B"/>
</svg>
