<svg width="60" height="60" viewBox="0 0 60 60" fill="none" xmlns="http://www.w3.org/2000/svg">
<path d="M26.397 11.0681H42.2164V12.9431H26.397V11.0681Z" fill="#07CEA4"/>
<path d="M23.772 18.5606H40.7145V20.4356H23.772V18.5606Z" fill="#07CEA4"/>
<path d="M15.3804 18.5606H21.5285V20.4356H15.3804V18.5606Z" fill="#07CEA4"/>
<path d="M31.3394 26.0531H40.7144V27.9281H31.3394V26.0531Z" fill="#07CEA4"/>
<path d="M15.3804 26.0531H28.3254V27.9281H15.3804V26.0531Z" fill="#07CEA4"/>
<path d="M15.3804 33.5456H40.7135V35.4206H15.3804V33.5456Z" fill="#07CEA4"/>
<path d="M27.5539 41.1853C27.4658 41.2859 27.4002 41.4042 27.3615 41.5323C27.3229 41.6604 27.3121 41.7952 27.3299 41.9278C27.5174 43.3406 27.4761 45.6694 26.7852 46.4278C26.7166 46.5076 26.6294 46.5692 26.5312 46.6072C26.4331 46.6451 26.3271 46.6582 26.2227 46.6453C25.5421 46.6134 25.3986 44.7778 25.2946 43.4362C25.1436 41.4956 24.9589 39.0394 22.9002 39.1613C20.9417 39.2391 20.8621 41.6681 20.7852 44.0156C20.7308 45.6553 20.6642 47.6972 19.9845 48.3215C19.9029 48.3972 19.8051 48.4534 19.6986 48.4859C19.5921 48.5184 19.4796 48.5263 19.3696 48.509C16.8674 48.3825 16.3161 43.2 16.3208 41.3953L14.4458 41.3887C14.4458 41.7459 14.4683 50.1375 19.2749 50.3822H19.4474C20.1146 50.3975 20.7619 50.1543 21.2539 49.7034C22.5121 48.5456 22.5871 46.275 22.6602 44.0784C22.6297 43.0643 22.7456 42.0511 23.0042 41.07C23.2733 41.8811 23.4156 42.7289 23.4261 43.5834C23.5846 45.6197 23.8011 48.4106 26.1364 48.5194C26.5161 48.5436 26.8963 48.4819 27.2488 48.3389C27.6014 48.1959 27.9172 47.9753 28.1727 47.6934C29.2883 46.4747 29.3577 44.1309 29.2864 42.7444H33.4358V40.8694H28.2589C28.1257 40.8689 27.9939 40.8969 27.8724 40.9513C27.7508 41.0058 27.6422 41.0856 27.5539 41.1853Z" fill="#07CEA4"/>
<path d="M54.4508 21.8634H51.7049V20.0128C51.7046 19.4597 51.4849 18.9294 51.094 18.5381C50.7031 18.1469 50.173 17.9267 49.6199 17.9259H50.1655V4.62282C50.1655 4.37418 50.0667 4.13572 49.8909 3.95991C49.7151 3.78409 49.4766 3.68532 49.228 3.68532H17.4233C17.1747 3.68537 16.9363 3.78418 16.7605 3.96001L8.22928 12.4913C8.14211 12.5784 8.07297 12.6819 8.02584 12.7958C7.97871 12.9097 7.95449 13.0317 7.95459 13.155V54.5738C7.95459 54.8224 8.05336 55.0609 8.22918 55.2367C8.40499 55.4125 8.64345 55.5113 8.89209 55.5113H45.9955L46.5327 56.7028C46.6069 56.8673 46.727 57.0069 46.8786 57.1048C47.0302 57.2027 47.2068 57.2547 47.3872 57.2547C47.5677 57.2547 47.7443 57.2027 47.8959 57.1048C48.0474 57.0069 48.1675 56.8673 48.2418 56.7028L51.6224 49.2028C51.6783 49.0824 51.7077 48.9513 51.7086 48.8184V23.7384H53.5171V40.9153H55.3921V22.8009C55.3921 22.6775 55.3677 22.5553 55.3203 22.4413C55.273 22.3273 55.2036 22.2238 55.1162 22.1367C55.0287 22.0496 54.9249 21.9806 54.8107 21.9337C54.6966 21.8868 54.5742 21.8629 54.4508 21.8634ZM16.4858 6.88594V12.2128H11.1562L16.4858 6.88594ZM9.82959 53.6363V14.0878H17.4233C17.672 14.0878 17.9104 13.989 18.0862 13.8132C18.2621 13.6374 18.3608 13.399 18.3608 13.1503V5.55657H48.2905V17.9222H45.1536C44.6003 17.9227 44.0698 18.1427 43.6785 18.534C43.2873 18.9252 43.0673 19.4557 43.0668 20.0091V48.8166C43.0679 48.9495 43.0977 49.0806 43.1539 49.2009L45.1536 53.6344L9.82959 53.6363ZM47.3821 54.0366L45.4508 49.7541H49.3124L47.3821 54.0366ZM49.8252 47.8791H44.9418V33.0797H49.8299L49.8252 47.8791ZM49.8252 31.2047H44.9418V20.0128C44.942 19.9567 44.9644 19.903 45.0041 19.8633C45.0438 19.8236 45.0975 19.8012 45.1536 19.8009H49.6199C49.6476 19.8011 49.675 19.8066 49.7005 19.8174C49.7261 19.8281 49.7493 19.8437 49.7688 19.8634C49.7883 19.8831 49.8037 19.9064 49.8142 19.932C49.8247 19.9577 49.83 19.9851 49.8299 20.0128L49.8252 31.2047Z" fill="#07CEA4"/>
</svg>
