<svg width="22" height="22" viewBox="0 0 22 22" fill="none" xmlns="http://www.w3.org/2000/svg">
<path d="M2.75 8.25H19.25V6.875C19.25 6.51033 19.1051 6.16059 18.8473 5.90273C18.5894 5.64487 18.2397 5.5 17.875 5.5H4.125C3.76033 5.5 3.41059 5.64487 3.15273 5.90273C2.89487 6.16059 2.75 6.51033 2.75 6.875V8.25ZM2.75 9.625V16.5C2.75 16.8647 2.89487 17.2144 3.15273 17.4723C3.41059 17.7301 3.76033 17.875 4.125 17.875H17.875C18.2397 17.875 18.5894 17.7301 18.8473 17.4723C19.1051 17.2144 19.25 16.8647 19.25 16.5V9.625H2.75ZM4.125 4.125H17.875C18.6043 4.125 19.3038 4.41473 19.8195 4.93046C20.3353 5.44618 20.625 6.14565 20.625 6.875V16.5C20.625 17.2293 20.3353 17.9288 19.8195 18.4445C19.3038 18.9603 18.6043 19.25 17.875 19.25H4.125C3.39565 19.25 2.69618 18.9603 2.18046 18.4445C1.66473 17.9288 1.375 17.2293 1.375 16.5V6.875C1.375 6.14565 1.66473 5.44618 2.18046 4.93046C2.69618 4.41473 3.39565 4.125 4.125 4.125Z" fill="#07CEA4"/>
<path d="M8.25 2.75V4.125H13.75V2.75H8.25ZM8.25 1.375H13.75C14.1147 1.375 14.4644 1.51987 14.7223 1.77773C14.9801 2.03559 15.125 2.38533 15.125 2.75V4.125C15.125 4.48967 14.9801 4.83941 14.7223 5.09727C14.4644 5.35513 14.1147 5.5 13.75 5.5H8.25C7.88533 5.5 7.53559 5.35513 7.27773 5.09727C7.01987 4.83941 6.875 4.48967 6.875 4.125V2.75C6.875 2.38533 7.01987 2.03559 7.27773 1.77773C7.53559 1.51987 7.88533 1.375 8.25 1.375Z" fill="#07CEA4"/>
</svg>
