<svg width="56" height="56" viewBox="0 0 56 56" fill="none" xmlns="http://www.w3.org/2000/svg">
<path d="M50.2857 24.8788H26.1483C25.6945 24.8788 25.3267 25.2466 25.3267 25.7004C25.3267 26.1542 25.6945 26.522 26.1483 26.522H50.2858C50.7396 26.522 51.1075 26.1542 51.1075 25.7004C51.1075 25.2465 50.7396 24.8788 50.2857 24.8788Z" fill="#9B54E1"/>
<path d="M28.493 9.43225C28.0392 9.43225 27.6714 9.80008 27.6714 10.2539V13.2848C27.6714 13.7385 28.0392 14.1064 28.493 14.1064C28.9468 14.1064 29.3146 13.7385 29.3146 13.2848V10.2539C29.3146 9.79997 28.9468 9.43225 28.493 9.43225Z" fill="#9B54E1"/>
<path d="M31.3138 9.43225C30.86 9.43225 30.4922 9.80008 30.4922 10.2539V13.2848C30.4922 13.7385 30.86 14.1064 31.3138 14.1064C31.7676 14.1064 32.1354 13.7385 32.1354 13.2848V10.2539C32.1354 9.79997 31.7676 9.43225 31.3138 9.43225Z" fill="#9B54E1"/>
<path d="M34.1346 9.43225C33.6808 9.43225 33.313 9.80008 33.313 10.2539V13.2848C33.313 13.7385 33.6808 14.1064 34.1346 14.1064C34.5884 14.1064 34.9562 13.7385 34.9562 13.2848V10.2539C34.9562 9.79997 34.5884 9.43225 34.1346 9.43225Z" fill="#9B54E1"/>
<path d="M36.9554 9.43225C36.5016 9.43225 36.1338 9.80008 36.1338 10.2539V13.2848C36.1338 13.7385 36.5016 14.1064 36.9554 14.1064C37.4092 14.1064 37.777 13.7385 37.777 13.2848V10.2539C37.777 9.79997 37.4092 9.43225 36.9554 9.43225Z" fill="#9B54E1"/>
<path d="M39.7767 9.43225C39.3229 9.43225 38.9551 9.80008 38.9551 10.2539V13.2848C38.9551 13.7385 39.3229 14.1064 39.7767 14.1064C40.2305 14.1064 40.5983 13.7385 40.5983 13.2848V10.2539C40.5983 9.79997 40.2305 9.43225 39.7767 9.43225Z" fill="#9B54E1"/>
<path d="M50.2859 20.5403H32.8362C32.3837 20.5403 32.0171 20.907 32.0171 21.3594C32.0171 21.8118 32.3837 22.1785 32.8362 22.1785H50.2859C50.7383 22.1785 51.105 21.8119 51.105 21.3594C51.105 20.907 50.7384 20.5403 50.2859 20.5403Z" fill="#9B54E1"/>
<path d="M29.0132 20.5403H26.1482C25.6958 20.5403 25.3291 20.907 25.3291 21.3594C25.3291 21.8118 25.6957 22.1785 26.1482 22.1785H29.0132C29.4655 22.1785 29.8323 21.8119 29.8323 21.3594C29.8323 20.907 29.4656 20.5403 29.0132 20.5403Z" fill="#9B54E1"/>
<path d="M55.9985 11.5337C55.9981 11.5245 55.9977 11.5154 55.9972 11.5063C55.9947 11.4711 55.9909 11.4362 55.9841 11.4019C55.9772 11.367 55.9673 11.3326 55.9559 11.2992C55.9531 11.2908 55.9501 11.2827 55.9471 11.2745C55.935 11.2424 55.9217 11.2109 55.9057 11.1805L55.904 11.1769C55.8872 11.1453 55.8677 11.1153 55.8468 11.086C55.8418 11.079 55.8367 11.0722 55.8315 11.0653C55.8094 11.0363 55.786 11.0081 55.7599 10.9821L47.4472 2.6695C47.4213 2.64358 47.3934 2.62039 47.3647 2.59841C47.3574 2.59294 47.3502 2.58747 47.3428 2.58222C47.3139 2.56166 47.2842 2.5423 47.253 2.52578C47.2508 2.52469 47.2486 2.52381 47.2464 2.52272C47.2171 2.50741 47.1868 2.4945 47.156 2.48291C47.147 2.47952 47.138 2.47624 47.1288 2.47317C47.0965 2.46224 47.0637 2.45272 47.0301 2.44594C47.0275 2.44539 47.0248 2.44506 47.0222 2.44463C46.9902 2.4385 46.9577 2.43478 46.9249 2.43249C46.9145 2.43172 46.9041 2.43128 46.8937 2.43095C46.8852 2.43063 46.8766 2.42964 46.868 2.42964H22.1695C21.2125 2.42964 20.4341 3.20806 20.4341 4.16498V21.8196L13.3759 25.3887C13.2804 25.437 13.1952 25.5036 13.1253 25.5847L8.85365 30.5367C8.49097 29.7879 7.72567 29.2692 6.83941 29.2692H2.23923C1.0045 29.269 0 30.2736 0 31.5082V50.7294C0 51.964 1.0045 52.9685 2.23923 52.9685H6.83963C7.97122 52.9685 8.90714 52.1238 9.05578 51.0323L11.1622 51.8294C14.2146 52.9845 17.4174 53.5704 20.6811 53.5704H39.107C40.8832 53.5704 42.4113 52.3222 42.797 50.6744H54.2646C55.2215 50.6744 56 49.896 56 48.9391V11.5614C55.9998 11.5521 55.9987 11.5431 55.9985 11.5337ZM47.6871 5.22613L53.2033 10.7423H47.7555C47.7178 10.7423 47.6871 10.7116 47.6871 10.674V5.22613ZM33.7389 47.7783H39.1761C39.7463 47.7783 40.2634 48.0098 40.639 48.3834C40.6406 48.385 40.6424 48.3865 40.6441 48.3882C40.6878 48.4318 40.729 48.4779 40.7686 48.5252C40.7721 48.5294 40.7759 48.5334 40.7794 48.5376C40.8197 48.5865 40.8576 48.6373 40.8934 48.6898C40.8949 48.6921 40.8966 48.6943 40.8982 48.6965C40.9346 48.7504 40.9685 48.8062 40.9998 48.8636L41.0018 48.867C41.0326 48.9238 41.0607 48.9823 41.0862 49.0421C41.0874 49.0449 41.0887 49.0476 41.0898 49.0503C41.1139 49.1073 41.135 49.1658 41.1539 49.2252C41.1561 49.2322 41.1585 49.239 41.1607 49.246C41.1776 49.3009 41.1916 49.3569 41.2039 49.4136C41.2066 49.4264 41.2097 49.439 41.2122 49.4519C41.2224 49.5036 41.2301 49.5563 41.2363 49.6094C41.2384 49.6275 41.2409 49.6457 41.2425 49.6639C41.2471 49.7137 41.2492 49.7641 41.2502 49.8149C41.2509 49.8538 41.2532 49.8924 41.2518 49.9316C41.2126 51.0346 40.2505 51.9319 39.1069 51.9319H20.681C17.616 51.9319 14.6084 51.3819 11.7419 50.297L9.07864 49.2892V48.6958C9.07864 48.2434 8.71201 47.8766 8.25953 47.8766C7.80716 47.8766 7.44042 48.2433 7.44042 48.6958V50.7292C7.44042 51.0606 7.17093 51.3301 6.83952 51.3301H2.23923C1.90782 51.3301 1.63821 51.0606 1.63821 50.7292V31.5082C1.63821 31.1768 1.90782 30.9073 2.23923 30.9073H6.83963C7.17103 30.9073 7.44053 31.1768 7.44053 31.5082V48.8731C7.44053 49.3255 7.80716 49.6922 8.25964 49.6922C8.71201 49.6922 9.07874 49.3256 9.07874 48.8731V32.7839L14.2599 26.7774L20.4342 23.6552V29.5835C20.4342 30.0359 20.8009 30.4026 21.2533 30.4026H41.4535C42.597 30.4026 43.5592 31.3 43.5985 32.403C43.6187 32.973 43.4124 33.5123 43.0178 33.9214C42.6226 34.3308 42.0918 34.5564 41.5231 34.5564H33.7391C33.2867 34.5564 32.92 34.923 32.92 35.3755C32.92 35.8279 33.2866 36.1946 33.7391 36.1946H47.1076C48.2511 36.1946 49.2134 37.092 49.2527 38.1949C49.2729 38.765 49.0666 39.3043 48.6719 39.7134C48.2767 40.1228 47.7459 40.3483 47.1772 40.3483H33.7389C33.2865 40.3483 32.9198 40.7149 32.9198 41.1674C32.9198 41.6199 33.2864 41.9865 33.7389 41.9865H43.3747C43.9434 41.9865 44.4742 42.2119 44.8693 42.6214C45.2642 43.0306 45.4705 43.5698 45.4502 44.1399C45.4109 45.2429 44.4487 46.1402 43.3051 46.1402H33.7388C33.2864 46.1402 32.9197 46.5068 32.9197 46.9593C32.9197 47.4118 33.2865 47.7783 33.7389 47.7783ZM54.3617 48.939C54.3616 48.9926 54.3179 49.0361 54.2643 49.0361H42.7994C42.6988 48.587 42.5175 48.1615 42.2579 47.7783H43.3052C43.5571 47.7783 43.8041 47.7533 44.0435 47.7055C45.7193 47.3711 47.0259 45.9255 47.0874 44.198C47.1158 43.3986 46.8946 42.6329 46.4564 41.9865H47.1769C48.1943 41.9865 49.1436 41.5832 49.8503 40.8511C50.5566 40.1191 50.9258 39.1552 50.8896 38.1367C50.821 36.2075 49.1989 34.6305 47.2441 34.5597C47.2219 34.5579 47.1996 34.5564 47.1769 34.5564H47.1074H44.6046C45.0427 33.9099 45.2639 33.1442 45.2355 32.3448C45.1652 30.3707 43.4686 28.7644 41.4534 28.7644H22.0723V4.16509C22.0723 4.11149 22.116 4.06796 22.1695 4.06796H46.0489V10.6742C46.0489 11.6151 46.8144 12.3808 47.7555 12.3808H54.3617V48.939Z" fill="#9B54E1"/>
<path d="M41.8049 6.58611H26.5543C25.7613 6.58611 25.1162 7.23109 25.1162 8.02405V15.295C25.1162 16.0879 25.7613 16.733 26.5543 16.733H41.8049C42.5979 16.733 43.243 16.0879 43.243 15.295V8.02405C43.243 7.23109 42.5979 6.58611 41.8049 6.58611ZM41.6049 15.0949H26.7544V8.22432H41.6049V15.0949Z" fill="#9B54E1"/>
</svg>
