<svg width="60" height="60" viewBox="0 0 60 60" fill="none" xmlns="http://www.w3.org/2000/svg">
<path d="M35.625 22.5C36.1428 22.5 36.5625 22.0803 36.5625 21.5625C36.5625 21.0447 36.1428 20.625 35.625 20.625C35.1072 20.625 34.6875 21.0447 34.6875 21.5625C34.6875 22.0803 35.1072 22.5 35.625 22.5Z" fill="#FC782C"/>
<path d="M24.375 22.5C24.8928 22.5 25.3125 22.0803 25.3125 21.5625C25.3125 21.0447 24.8928 20.625 24.375 20.625C23.8572 20.625 23.4375 21.0447 23.4375 21.5625C23.4375 22.0803 23.8572 22.5 24.375 22.5Z" fill="#FC782C"/>
<path d="M33.75 30H31.875C31.875 31.0341 31.0341 31.875 30 31.875C28.9659 31.875 28.125 31.0341 28.125 30H26.25C26.25 32.0681 27.9319 33.75 30 33.75C32.0681 33.75 33.75 32.0681 33.75 30Z" fill="#FC782C"/>
<path d="M46.0528 44.3325L36.435 40.3978C35.3737 39.9637 34.6875 38.9419 34.6875 37.7944V37.1213C37.5722 35.1281 39.7753 32.3156 41.0241 29.0625H41.25C43.8347 29.0625 45.9375 26.9597 45.9375 24.375V17.1834C45.9375 15.5428 46.7522 14.0213 48.1153 13.1119L49.0959 12.4594L46.6584 8.62875C43.5938 3.81281 38.3559 0.9375 32.6475 0.9375H32.4403C27.2081 0.9375 22.2628 3.42188 19.1372 7.60219C16.1747 8.36813 14.0625 11.0662 14.0625 14.1553V24.375C14.0625 26.9597 16.1653 29.0625 18.75 29.0625H18.9759C20.2247 32.3166 22.4278 35.1281 25.3125 37.1213V37.7944C25.3125 38.9419 24.6262 39.9628 23.565 40.3969L13.9472 44.3316C8.32219 46.6341 4.6875 52.0481 4.6875 58.125V59.0625H55.3125V58.125C55.3125 52.0481 51.6778 46.6341 46.0528 44.3325ZM38.4375 57.1875H21.5625V53.4375H38.4375V57.1875ZM28.7231 44.9503L26.8378 46.8356L24.8194 41.8613C25.1016 41.7009 25.3594 41.5134 25.5975 41.3034L28.7231 44.9503ZM32.3962 48.7228L31.2431 51.5625H28.7559L27.6028 48.7228L30 46.3266L32.3962 48.7228ZM34.4025 41.3044C34.6406 41.5144 34.8984 41.7019 35.1806 41.8622L33.1622 46.8366L31.2769 44.9513L34.4025 41.3044ZM26.7328 51.5625H24.9919L21.4303 43.2975L23.1009 42.6141L26.7328 51.5625ZM33.2672 51.5625L36.8991 42.6141L38.5697 43.2975L35.0081 51.5625H33.2672ZM41.6381 27.1481C41.9934 25.7588 42.1875 24.3122 42.1875 22.8291V22.5C42.1875 22.23 42.1519 21.9684 42.1078 21.7106C43.2375 22.0753 44.0625 23.1253 44.0625 24.375C44.0625 25.7925 43.0041 26.9569 41.6381 27.1481ZM19.8712 9.35625L20.235 9.28406L20.4497 8.98219C23.2097 5.11875 27.6919 2.8125 32.4403 2.8125H32.6475C37.7119 2.8125 42.3581 5.36344 45.0778 9.63562L46.5459 11.9428C44.9803 13.2225 44.0625 15.1369 44.0625 17.1834V20.6484C43.2769 20.0541 42.3094 19.6875 41.25 19.6875V19.7166C40.395 18.5681 39.0384 17.8125 37.5 17.8125H37.1081C32.5181 17.8125 28.0528 16.8956 23.8425 15.0919L23.37 14.8847L17.8125 18.2194V19.7822C17.1159 19.9247 16.485 20.2341 15.9375 20.6484V14.1544C15.9375 11.8303 17.5922 9.81281 19.8712 9.35625V9.35625ZM15.9375 24.375C15.9375 23.1544 16.7241 22.1231 17.8125 21.735V22.8281C17.8125 24.3113 18.0066 25.7588 18.3619 27.1481C16.9959 26.9569 15.9375 25.7925 15.9375 24.375V24.375ZM19.6875 22.8291V19.2816L23.5116 16.9875C27.8409 18.7791 32.4131 19.6875 37.1081 19.6875H37.5C39.0506 19.6875 40.3125 20.9494 40.3125 22.5V22.8291C40.3125 29.4131 36.1819 35.2481 30 37.4466C23.8181 35.2481 19.6875 29.4131 19.6875 22.8291V22.8291ZM29.7038 39.3263L30 39.4256L30.2963 39.3272C31.1841 39.0309 32.0353 38.6691 32.8453 38.2472C32.8969 38.7825 33.0291 39.2972 33.2484 39.7706L30 43.56L26.7506 39.7687C26.97 39.2953 27.1022 38.7816 27.1538 38.2463C27.9638 38.6681 28.8159 39.0309 29.7038 39.3263V39.3263ZM14.6569 46.0687L19.695 44.0081L22.95 51.5625H19.6875V57.1875H15.9375V51.5625H14.0625V57.1875H6.59531C6.945 52.2609 10.0312 47.9606 14.6569 46.0687ZM45.9375 57.1875V51.5625H44.0625V57.1875H40.3125V51.5625H37.05L40.3059 44.0072L45.3441 46.0678C49.9697 47.9606 53.0559 52.26 53.4056 57.1866H45.9375V57.1875Z" fill="#FC782C"/>
<path d="M25.3556 9.15469L24.1472 7.72125C23.4337 8.32313 22.785 9.00281 22.2188 9.74344L23.7094 10.8825C24.1922 10.2497 24.7462 9.6675 25.3556 9.15469Z" fill="#FC782C"/>
<path d="M32.4403 6.5625L32.7975 6.56344L32.8284 4.68844L32.4403 4.6875C29.9897 4.6875 27.5972 5.38688 25.5234 6.70969L26.5312 8.29031C28.3031 7.16063 30.3469 6.5625 32.4403 6.5625Z" fill="#FC782C"/>
</svg>
